<svg xmlns="http://www.w3.org/2000/svg" width="128" height="128" viewBox="0 0 128 128" fill="none"><metadata><rdf:RDF xmlns:rdf="http://www.w3.org/1999/02/22-rdf-syntax-ns#" xmlns:dc="http://purl.org/dc/elements/1.1/"><rdf:Description><dc:creator>RealFaviconGenerator</dc:creator><dc:source>https://realfavicongenerator.net</dc:source></rdf:Description></rdf:RDF></metadata><path d="M64.3047 12C64.2506 12 64.1964 12.0004 64.1423 12.0006L27.0001 12.0001C24.2386 12 22 14.2386 22 17.0001V113C22 114.657 23.3431 116 25 116H41.0859C42.4719 116 43.6763 115.056 44.0067 113.71C46.2517 104.566 51.8572 82.252 53.7922 74.3944C49.2146 71.9843 46.0928 67.1821 46.0928 61.6497C46.0928 53.6993 52.5385 47.2542 60.4897 47.2542C68.4409 47.2542 74.8866 53.6993 74.8866 61.6497C74.8866 67.2777 71.656 72.1501 66.9485 74.5172L78.0994 113.819C78.4656 115.109 79.644 116 80.9855 116H101.332C103.516 116 104.968 113.741 104.061 111.754L88.6959 78.1017C97.0652 71.2996 102.553 60.4967 102.553 49.0806C102.553 28.6016 85.4286 12 64.3047 12Z" fill="black"></path></svg>